<svg id="f681556a-c89d-404a-8fd5-9f5afa632a60"
    xmlns="http://www.w3.org/2000/svg"
    xmlns:xlink="http://www.w3.org/1999/xlink" viewBox="0 0 627 627">
    <defs>
        <linearGradient id="a46f684e-18ca-4894-8cd5-827d0bf94466" x1="713.43" y1="-718.07" x2="377.71" y2="1324.28" gradientTransform="matrix(1, 0, 0, -1, 0, 1021.89)" gradientUnits="userSpaceOnUse">
            <stop offset="0.27" stop-color="#e2dbff"/>
            <stop offset="1" stop-color="#6d4aff"/>
        </linearGradient>
        <radialGradient id="b3e693d4-522e-41ef-be2b-6b4ab58e3b92" cx="213.46" cy="932.08" r="1" gradientTransform="matrix(393, -11, -14.01, -500.66, -70670.73, 469527.76)" gradientUnits="userSpaceOnUse">
            <stop offset="0.11" stop-color="#ff8686"/>
            <stop offset="0.99" stop-color="#6d4aff"/>
        </radialGradient>
    </defs>
    <path d="M449.61,223.63a87.55,87.55,0,0,1,123.78,0l226,226a87.55,87.55,0,0,1,0,123.78l-226,226a87.55,87.55,0,0,1-123.78,0l-226-226a87.55,87.55,0,0,1,0-123.78Z" transform="translate(-198 -198)" style="fill:url(#a46f684e-18ca-4894-8cd5-827d0bf94466)"/>
    <path d="M403.11,270.62a58.35,58.35,0,0,1,82.51,0L683.25,468.25a58.35,58.35,0,0,1,0,82.51L483.4,750.61a58.35,58.35,0,0,1-82.51,0L223.52,573.24a87,87,0,0,1,0-123Z" transform="translate(-198 -198)" style="fill:url(#b3e693d4-522e-41ef-be2b-6b4ab58e3b92)"/>
</svg>
