<svg xmlns="http://www.w3.org/2000/svg" viewBox="0 0 249.32 42.99" xmlns:v="https://vecta.io/nano"><defs><linearGradient id="A" x1="35.34" y1="108.94" x2="12.32" y2="-31.07" gradientUnits="userSpaceOnUse"><stop offset=".27" stop-color="#e2dbff"/><stop offset="1" stop-color="#6d4aff"/></linearGradient><radialGradient id="B" cx="-171.97" cy="445.09" r=".07" gradientTransform="matrix(393, -11, -14.01, -500.66, 73816.77, 220972.4)" gradientUnits="userSpaceOnUse"><stop offset=".11" stop-color="#ff8686"/><stop offset=".99" stop-color="#6d4aff"/></radialGradient></defs><path d="M75.31 8.09H63.46v25.68h4.69v-6.39a2.36 2.36 0 0 1 .69-1.61 2.33 2.33 0 0 1 1.66-.68h4.81a8.48 8.48 0 0 0 6-14.45 8.54 8.54 0 0 0-2.76-1.87 8.41 8.41 0 0 0-3.24-.68zM79 16.54a4 4 0 0 1-4 3.98h-6.87v-8H75a4 4 0 0 1 4 4zm5.49 17.23v-10.2c0-4.15 2.43-7.46 7.28-7.46a9.08 9.08 0 0 1 2.32.26v4.19h-1.25c-2.57 0-3.7 1.17-3.7 3.56v9.65zm10.99-8.66a9.23 9.23 0 0 1 18.46 0 9.23 9.23 0 1 1-18.46 0zm13.86 0a4.64 4.64 0 1 0-9.26 0 4.63 4.63 0 0 0 4.63 5c2.69-.04 4.63-2.06 4.63-5zm18.12-4.92h-5v6.42c0 2.25.81 3.28 3.12 3.28h1.47v3.78a9.94 9.94 0 0 1-2.71.41c-3.9 0-6.55-2.35-6.55-6.8v-7h-3.12v-3.7h.77a2.33 2.33 0 0 0 1.66-.68 2.36 2.36 0 0 0 .69-1.66v-3.6h4.67v5.84h5zm1.4 4.92a9.23 9.23 0 0 1 18.45 0 9.23 9.23 0 0 1-18.45 0zm13.86 0a4.65 4.65 0 1 0-9.27 0 4.65 4.65 0 1 0 9.27 0zm7.02 8.66v-9.84c0-4.55 2.9-7.82 8.08-7.82s8.06 3.27 8.06 7.82v9.84h-4.64V24.3c0-2.53-1.14-4.11-3.42-4.11s-3.41 1.58-3.41 4.11v9.47z" fill="#1b1340"/><path d="M179.35 33.77V9.22h10.08a8.56 8.56 0 0 1 5.87 2.05 7.17 7.17 0 0 1 2.34 5.69 7.2 7.2 0 0 1-2.38 5.72 8.49 8.49 0 0 1-5.83 2.09H184v9zM184 20.38h4.75a4.9 4.9 0 0 0 3.1-.9 3 3 0 0 0 1.15-2.52 2.93 2.93 0 0 0-1.15-2.49 4.75 4.75 0 0 0-3.06-.9H184zm22.5 13.79a7.54 7.54 0 0 1-5.5-2.34 8.9 8.9 0 0 1-2.34-6.52 8.76 8.76 0 0 1 2.34-6.48 7.54 7.54 0 0 1 5.51-2.34q4.06 0 5.62 3l.39-2.66h3.89v16.94h-4l-.29-2.59q-1.58 2.98-5.62 2.99zm-3.35-8.86a4.84 4.84 0 0 0 1.3 3.53 4.31 4.31 0 0 0 3.24 1.33 4.12 4.12 0 0 0 3-1.26 4.83 4.83 0 0 0 1.3-3.6 4.67 4.67 0 0 0-1.33-3.49 4.05 4.05 0 0 0-3-1.33 4.31 4.31 0 0 0-3.24 1.33 4.77 4.77 0 0 0-1.27 3.49zm23.9 8.86a7.64 7.64 0 0 1-4.85-1.52 5.38 5.38 0 0 1-2.13-4h4.36a2 2 0 0 0 .86 1.44 3.2 3.2 0 0 0 1.76.47 2.57 2.57 0 0 0 1.52-.39 1.24 1.24 0 0 0 .57-1 1.38 1.38 0 0 0-.9-1.19 9.37 9.37 0 0 0-2.16-.79l-2.55-.86a5.35 5.35 0 0 1-2.16-1.73 5 5 0 0 1-.87-3 4.56 4.56 0 0 1 1.66-3.6 6.58 6.58 0 0 1 4.5-1.48 6.85 6.85 0 0 1 4.54 1.37 5.21 5.21 0 0 1 1.94 3.88h-4.29a2 2 0 0 0-.72-1.23 2.25 2.25 0 0 0-1.47-.47 2.15 2.15 0 0 0-1.4.44 1.32 1.32 0 0 0-.55 1.08c0 .48.3.87.91 1.18a13 13 0 0 0 2.15.8 22.27 22.27 0 0 1 2.6.9 4.9 4.9 0 0 1 2.19 1.72 4.83 4.83 0 0 1 .9 3 4.29 4.29 0 0 1-1.87 3.6 7.33 7.33 0 0 1-4.54 1.38zm15.86 0a7.69 7.69 0 0 1-4.86-1.52 5.36 5.36 0 0 1-2.12-4h4.35a2.05 2.05 0 0 0 .87 1.44 3.2 3.2 0 0 0 1.76.47 2.54 2.54 0 0 0 1.51-.39 1.22 1.22 0 0 0 .58-1 1.38 1.38 0 0 0-.9-1.19 9.74 9.74 0 0 0-2.16-.79l-2.56-.86a5.35 5.35 0 0 1-2.16-1.73 5 5 0 0 1-.86-3 4.58 4.58 0 0 1 1.64-3.63 6.58 6.58 0 0 1 4.5-1.48 6.82 6.82 0 0 1 4.54 1.37 5.18 5.18 0 0 1 1.96 3.91h-4.28a2 2 0 0 0-.72-1.23 2.28 2.28 0 0 0-1.48-.47 2.17 2.17 0 0 0-1.4.44 1.31 1.31 0 0 0-.54 1.08 1.36 1.36 0 0 0 .9 1.18 13.54 13.54 0 0 0 2.16.8 22.13 22.13 0 0 1 2.59.9 4.89 4.89 0 0 1 3.1 4.71 4.32 4.32 0 0 1-1.87 3.6 7.33 7.33 0 0 1-4.55 1.39z" fill="#6d4aff"/><g transform="translate(0 -3.23)"><path d="M17.25,5a6,6,0,0,1,8.49,0L41.23,20.48a6,6,0,0,1,0,8.49L25.74,44.46a6,6,0,0,1-8.49,0L1.76,29a6,6,0,0,1,0-8.49Z" fill="url(#A)"/><path d="M14.06,8.21a4,4,0,0,1,5.66,0L33.27,21.76a4,4,0,0,1,0,5.66l-13.7,13.7a4,4,0,0,1-5.66,0L1.75,29a6,6,0,0,1,0-8.44Z" fill="url(#B)"/></g></svg>